<?xml version="1.0" encoding="UTF-8"?>
<svg id="Camada_1" xmlns="http://www.w3.org/2000/svg" version="1.1" viewBox="0 0 1024 1024">
  <!-- Generator: Adobe Illustrator 30.0.0, SVG Export Plug-In . SVG Version: 2.1.1 Build 123)  -->
  <defs>
    <style>
      .st0, .st1 {
        fill: #8578fe;
      }

      .st2 {
        fill: #cbc7fe;
      }

      .st1 {
        display: none;
      }
    </style>
  </defs>
  <g>
    <path class="st0" d="M802.23,355.77v311.98c-5.23,68.93-61.5,126.07-130.5,131.5h-316.98c-70.8-5.96-129.23-66.06-131.55-137.45,3.54-98.44-4.57-200.01,0-298.08,3.47-74.51,59.03-132.34,133.83-137.17,101.3,2.92,205.81-4.88,306.76-.34,73.43,3.31,130.68,56.39,138.44,129.56Z"/>
    <path class="st2" d="M445.72,479.73h198.5c1.35,0,8.46,2.92,10.18,3.82,9.32,4.87,14.39,14.44,15.3,24.7,2.28,25.51,1.47,66.96,0,92.97-3.64,64.78-52.29,119.57-118.44,123.56-35.91,2.16-93.51,3.46-125.91-11.19-85.3-38.56-71.71-129.74-71.68-207.4.05-11.41,14.47-26.46,25.54-26.46h17.5c1.52-39.14-5.9-77.76,11.14-114.36,41.11-88.29,165.62-91.17,207.03-1.31,5.59,12.13,12.78,37.07,10.77,50.11-1.48,9.56-23.94,8.21-31.42,7.54-16.69-1.49-12.82-12.43-16.8-25.2-15.47-49.73-78.48-69.56-114.69-28.25-7.1,8.1-17.03,27.24-17.03,37.97v73.5ZM524.73,530.73c-.52-2.95,1.11-13.13-.94-14.56-1.12-.78-23.01-.78-24.13,0-2.08,1.45-.35,11.56-.98,14.52-44.87,5.41-52.82,60.54-8.49,76.08,12.8,4.49,49.64,5.18,45.09,26.02-3.86,17.66-33.99,16.99-45.2,5.58-3.18-3.23-4.78-10.34-9.93-10.64-2.15-.12-21.1,8.61-21.94,9.98-2.81,4.54,6.61,15.86,10.05,18.98,3.99,3.61,11.75,8.32,16.77,10.23,2.27.86,12.81,3.12,13.26,3.74,2.16,3-2.29,13.1,2.93,14.07,2.23.41,21.64.21,22.57-.44,2.32-2.22-.08-12.17,1.04-13.47.49-.57,12.05-2.89,14.59-3.9,36.4-14.49,35.77-61.54-2.43-75.95-11.08-4.18-40.89-6.48-45.33-17.66-7.57-19.07,23.66-24.45,37.01-15.01,3.67,2.6,8.18,10.82,11.7,11.19s20.61-9.56,21.2-13.48c1.42-9.35-27.27-27.16-36.84-25.28Z"/>
  </g>
  <path class="st1" d="M-367.21,504.99c9.57-1.88,38.25,15.93,36.84,25.28-.59,3.92-17.58,13.86-21.2,13.48s-8.03-8.59-11.7-11.19c-13.34-9.44-44.58-4.05-37.01,15.01,4.44,11.18,34.26,13.48,45.33,17.66,38.2,14.42,38.83,61.46,2.43,75.95-2.54,1.01-14.1,3.33-14.59,3.9-1.11,1.3,1.28,11.24-1.04,13.47-.93.65-20.34.85-22.57.44-5.22-.97-.77-11.07-2.93-14.07-.45-.62-10.99-2.88-13.26-3.74-5.02-1.91-12.79-6.61-16.77-10.23-3.44-3.12-12.87-14.44-10.05-18.98.85-1.36,19.79-10.1,21.94-9.98,5.15.3,6.75,7.4,9.93,10.64,11.21,11.41,41.34,12.08,45.2-5.58,4.55-20.84-32.29-21.53-45.09-26.02-44.33-15.54-36.37-70.68,8.49-76.08.63-2.96-1.1-13.07.98-14.52,1.12-.78,23.01-.78,24.13,0,2.05,1.43.42,11.6.94,14.56Z"/>
</svg>